<svg width="166" height="166" viewBox="0 0 166 166" fill="none" xmlns="http://www.w3.org/2000/svg">
<g clip-path="url(#clip0)">
<rect x="81.7007" y="42.7206" width="2.59867" height="51.2647" rx="1.29934" fill="url(#paint0_linear)"/>
<rect x="89.4968" y="51.9219" width="2.59867" height="32.862" rx="1.29934" fill="url(#paint1_linear)"/>
<rect x="73.9048" y="58.4944" width="2.59868" height="19.7172" rx="1.29934" fill="url(#paint2_linear)"/>
<rect x="97.2927" y="62.4377" width="2.59867" height="10.5158" rx="1.29934" fill="url(#paint3_linear)"/>
<rect x="105.089" y="55.2081" width="2.59867" height="24.9751" rx="1.29934" fill="url(#paint4_linear)"/>
<rect x="112.885" y="61.1233" width="2.59868" height="13.1448" rx="1.29934" fill="url(#paint5_linear)"/>
<rect x="66.1086" y="55.2081" width="2.59866" height="26.2896" rx="1.29933" fill="url(#paint6_linear)"/>
<rect x="58.3127" y="62.4377" width="2.59867" height="11.8303" rx="1.29934" fill="url(#paint7_linear)"/>
<rect x="50.5166" y="59.8088" width="2.59867" height="17.0882" rx="1.29934" fill="url(#paint8_linear)"/>
<rect x="42.7207" y="63.7522" width="2.59867" height="9.20136" rx="1.29934" fill="url(#paint9_linear)"/>
<rect x="120.681" y="63.7522" width="2.59868" height="9.20136" rx="1.29934" fill="url(#paint10_linear)"/>
<path d="M83.0002 16.8306C111.369 16.8306 130.642 26.0679 140.284 44.2857C140.913 45.475 142.388 45.9289 143.578 45.2996C144.767 44.6699 145.221 43.1957 144.591 42.0062C134.038 22.0677 113.316 11.9579 83.0002 11.9579C56.3893 11.9579 37.0862 19.8092 25.6271 35.2935C16.9182 47.0611 12.8597 63.4912 13.8894 82.8081C14.66 97.2654 17.9385 108.131 18.0776 108.586C18.0903 108.627 18.1039 108.668 18.1188 108.709L21.551 118.12C21.552 118.122 21.5526 118.124 21.5532 118.127L36.8625 160.105L36.8664 160.116L37.12 160.811C30.2757 159.594 24.5179 154.94 21.9245 148.271L16.7545 134.977C14.8439 130.063 14.3073 124.72 15.2028 119.525C15.2722 119.122 15.2391 118.708 15.1068 118.321C15.0592 118.183 10.3382 104.239 8.72035 86.2928C7.77428 75.7946 8.06705 66.0301 9.5912 57.2704C11.4759 46.436 15.2605 37.125 20.84 29.5967C21.6414 28.5154 21.4145 26.99 20.3332 26.1885C19.2513 25.387 17.7255 25.6143 16.925 26.6953C10.8955 34.8305 6.81524 44.8239 4.79698 56.3976C3.19793 65.5678 2.88279 75.7505 3.86128 86.6621C5.35269 103.296 9.35647 116.39 10.3009 119.308C9.39829 125.182 10.0561 131.197 12.2125 136.743L17.3825 150.037C19.2186 154.759 22.3998 158.766 26.5812 161.627C30.7624 164.487 35.6503 165.999 40.7168 165.999C42.3567 166.045 43.6108 164.253 43.0058 162.728L42.8748 162.369L56.3244 164.537C56.7326 164.606 57.1564 164.557 57.5467 164.421L67.1173 160.93C70.1663 159.819 72.5995 157.586 73.969 154.644C75.3385 151.702 75.4802 148.403 74.3685 145.354L65.9258 122.205C65.4651 120.94 64.0664 120.288 62.8023 120.75C61.5382 121.212 60.8871 122.61 61.3482 123.874L69.7908 147.024C70.4568 148.85 70.3718 150.826 69.5516 152.587C68.7313 154.349 67.2742 155.686 65.4483 156.352L58.1663 159.008L38.5614 105.252L45.8434 102.596C49.6134 101.223 53.7978 103.17 55.1721 106.939L57.9977 114.687C59.219 117.689 63.5765 116.07 62.5754 113.017L59.7498 105.269C57.4546 98.9763 50.4674 95.7227 44.174 98.0185L34.6316 101.499C34.2318 101.641 33.871 101.888 33.5925 102.207L24.6966 112.524L22.7208 107.106C22.4666 106.248 19.4458 95.796 18.7484 82.4252C18.089 69.7852 19.4283 51.8485 29.555 38.1765C40.0467 24.0127 58.0282 16.8306 83.0002 16.8306V16.8306ZM34.5716 108.534L53.0005 159.066L40.9626 157.126L26.6094 117.768L34.5716 108.534Z" fill="url(#paint11_linear)"/>
<path d="M161.33 57.1432C159.422 45.6383 155.498 35.6689 149.669 27.5113C136.623 9.25612 114.193 0 83.0021 0H82.9982C57.1048 0 37.152 6.41921 23.695 19.0793C21.4209 21.3725 24.6116 24.7564 27.0335 22.6282C39.5571 10.8464 58.3861 4.87268 83.0017 4.87268C112.522 4.87268 133.615 13.4382 145.695 30.3313C157.964 47.489 158.749 70.4229 157.247 86.641C155.604 104.383 150.94 118.185 150.892 118.322C150.761 118.709 150.727 119.122 150.797 119.524C151.692 124.72 151.156 130.063 149.245 134.977L144.075 148.271C141.482 154.94 135.724 159.593 128.88 160.811L129.133 160.115C129.134 160.112 129.136 160.108 129.137 160.105L144.446 118.126C144.447 118.124 144.448 118.122 144.449 118.12L147.881 108.709C147.896 108.668 147.909 108.627 147.922 108.586C148.3 107.348 157.087 77.9756 148.635 51.6704C148.224 50.3894 146.849 49.6843 145.57 50.096C144.289 50.5078 143.585 51.8799 143.996 53.1609C151.806 77.4666 143.703 105.669 143.279 107.106L141.303 112.524L132.407 102.206C132.128 101.887 131.766 101.64 131.365 101.497L121.825 98.0178C118.777 96.9057 115.477 97.0481 112.536 98.4173C109.594 99.7871 107.361 102.22 106.25 105.269L91.6311 145.353C90.5191 148.402 90.6611 151.701 92.0306 154.643C93.4001 157.585 95.8333 159.817 98.8823 160.929L108.453 164.419C108.843 164.556 109.267 164.605 109.675 164.536L123.125 162.368L122.994 162.727C122.388 164.252 123.643 166.044 125.283 165.998C130.349 165.998 135.237 164.486 139.418 161.626C143.6 158.765 146.781 154.758 148.617 150.036L153.787 136.742C155.943 131.196 156.601 125.181 155.699 119.307C156.634 116.421 160.564 103.588 162.093 87.1526C163.098 76.3542 162.841 66.257 161.33 57.1432V57.1432ZM96.4484 152.587C95.6284 150.826 95.5432 148.849 96.2091 147.024L110.828 106.939C111.494 105.113 112.831 103.656 114.593 102.836C116.355 102.016 118.33 101.931 120.156 102.596L127.439 105.252L107.834 159.008L100.552 156.353C98.726 155.686 97.269 154.349 96.4484 152.587V152.587ZM113 159.066L131.429 108.534L139.391 117.768L125.038 157.125L113 159.066Z" fill="url(#paint12_linear)"/>
</g>
<defs>
<linearGradient id="paint0_linear" x1="83" y1="42.7206" x2="83" y2="93.9853" gradientUnits="userSpaceOnUse">
<stop stop-color="#22DDF2"/>
<stop offset="1" stop-color="#D91193"/>
</linearGradient>
<linearGradient id="paint1_linear" x1="90.7962" y1="51.9219" x2="90.7962" y2="84.7839" gradientUnits="userSpaceOnUse">
<stop stop-color="#22DDF2"/>
<stop offset="1" stop-color="#D91193"/>
</linearGradient>
<linearGradient id="paint2_linear" x1="75.2041" y1="58.4944" x2="75.2041" y2="78.2116" gradientUnits="userSpaceOnUse">
<stop stop-color="#22DDF2"/>
<stop offset="1" stop-color="#D91193"/>
</linearGradient>
<linearGradient id="paint3_linear" x1="98.5921" y1="62.4377" x2="98.5921" y2="72.9536" gradientUnits="userSpaceOnUse">
<stop stop-color="#22DDF2"/>
<stop offset="1" stop-color="#D91193"/>
</linearGradient>
<linearGradient id="paint4_linear" x1="106.388" y1="55.2081" x2="106.388" y2="80.1832" gradientUnits="userSpaceOnUse">
<stop stop-color="#22DDF2"/>
<stop offset="1" stop-color="#D91193"/>
</linearGradient>
<linearGradient id="paint5_linear" x1="114.184" y1="61.1233" x2="114.184" y2="74.2681" gradientUnits="userSpaceOnUse">
<stop stop-color="#22DDF2"/>
<stop offset="1" stop-color="#D91193"/>
</linearGradient>
<linearGradient id="paint6_linear" x1="67.408" y1="55.2081" x2="67.408" y2="81.4977" gradientUnits="userSpaceOnUse">
<stop stop-color="#22DDF2"/>
<stop offset="1" stop-color="#D91193"/>
</linearGradient>
<linearGradient id="paint7_linear" x1="59.6121" y1="62.4377" x2="59.6121" y2="74.2681" gradientUnits="userSpaceOnUse">
<stop stop-color="#22DDF2"/>
<stop offset="1" stop-color="#D91193"/>
</linearGradient>
<linearGradient id="paint8_linear" x1="51.8159" y1="59.8088" x2="51.8159" y2="76.8971" gradientUnits="userSpaceOnUse">
<stop stop-color="#22DDF2"/>
<stop offset="1" stop-color="#D91193"/>
</linearGradient>
<linearGradient id="paint9_linear" x1="44.02" y1="63.7522" x2="44.02" y2="72.9536" gradientUnits="userSpaceOnUse">
<stop stop-color="#22DDF2"/>
<stop offset="1" stop-color="#D91193"/>
</linearGradient>
<linearGradient id="paint10_linear" x1="121.98" y1="63.7522" x2="121.98" y2="72.9536" gradientUnits="userSpaceOnUse">
<stop stop-color="#22DDF2"/>
<stop offset="1" stop-color="#D91193"/>
</linearGradient>
<linearGradient id="paint11_linear" x1="74.0903" y1="11.9579" x2="74.0903" y2="166" gradientUnits="userSpaceOnUse">
<stop stop-color="#22DDF2"/>
<stop offset="1" stop-color="#D91193"/>
</linearGradient>
<linearGradient id="paint12_linear" x1="92.8049" y1="0" x2="92.8049" y2="165.999" gradientUnits="userSpaceOnUse">
<stop stop-color="#22DDF2"/>
<stop offset="1" stop-color="#D91193"/>
</linearGradient>
<clipPath id="clip0">
<rect width="166" height="166" fill="white"/>
</clipPath>
</defs>
</svg>
